<svg version="1" xmlns="http://www.w3.org/2000/svg" width="933.333" height="933.333" viewBox="0 0 700.000000 700.000000"><path d="M449.6 89.2c-1.3 1.3-28.9 36.9-61.2 79.3-32.3 42.3-67.3 88.2-77.9 102-10.5 13.7-20.2 26.4-21.4 28.1-3.1 4.2-2.5 8.3 1.4 10.5 2.8 1.6 4.1 1.6 23.5-.2 11.3-1 22.7-1.8 25.4-1.9 4.5 0 4.8.2 4.4 2.2-.3 1.3-16.7 27.6-36.6 58.5-19.9 30.8-36.4 57.2-36.7 58.6-.5 1.8-.1 3.1 1.4 4.6 2.7 2.7 5.1 2.7 34.9 0 12.9-1.1 24-1.9 24.8-1.7.9.2-13 30-42.2 90.6C265.6 569.5 246 611 246 612c0 2.8 2.6 2.5 5.4-.8 7.5-8.5 168.5-212.9 168.9-214.3.7-2.6-1.5-6.2-4.3-6.9-1.4-.4-14.2.3-28.4 1.5-27.6 2.3-31 2.3-30.3-.4.4-1.6 17.5-29 58.6-94C428 278 437 262.7 437 261.4c0-1.3-.9-3.3-2.1-4.5-1.9-1.9-2.8-2-10.2-1.4-28.4 2.6-47.3 4.1-47.6 3.8-.2-.1.1-.8.6-1.5.9-1 52.8-114.5 71.9-156.9 5.8-13.1 5.8-16.9 0-11.7z"/></svg>