<?xml version="1.0" encoding="utf-8"?>
<!-- Generator: Adobe Illustrator 21.1.0, SVG Export Plug-In . SVG Version: 6.00 Build 0)  -->
<svg version="1.2" baseProfile="tiny" id="scarletflash"
	 xmlns="http://www.w3.org/2000/svg" xmlns:xlink="http://www.w3.org/1999/xlink" x="0px" y="0px" viewBox="0 0 512 512"
	 overflow="scroll" xml:space="preserve">
<g>
	<path fill="#FFFFFF" d="M244.7,0c7.5,0,15,0,22.5,0c1.2,0.2,2.3,0.4,3.5,0.5c13.5,0.7,26.8,2.5,40,5.4
		c56.6,12.7,103.7,41.2,141.1,85.4c32.2,38.1,51.4,82.1,57.9,131.5c3.6,27.2,2.8,54.3-2.4,81.2c-11.5,58.5-39.8,107.3-84.9,146.2
		c-39,33.6-84.4,53.4-135.5,59.7c-28.7,3.5-57.3,2.5-85.4-4C131.1,490,76.5,451.2,38.1,390.1C17.4,357.4,5.5,321.5,1.5,283
		c-0.5-5.2-1-10.5-1.5-15.7c0-7.5,0-15,0-22.5c0.1-1,0.4-2,0.4-3C1.3,225,3.7,208.4,8,192.3c17.6-65.8,55.2-117,112.6-153.5
		c33.1-21,69.3-33.2,108.3-37.3C234.2,0.9,239.4,0.5,244.7,0z M479.9,256c0-123.7-100.1-223.9-223.7-223.9
		C132.4,32,32.1,132,32,255.7C31.9,379.6,132.1,479.9,256,479.9C379.7,479.9,479.9,379.7,479.9,256z"/>
	<path fill="#ff5050" d="M275.4,190.1c4.2-0.3,7.9-0.6,11.5-0.9c8.8-0.8,17.7-1.5,26.5-2.3c2.3-0.2,4.3,0.1,5.6,2.2
		c1.4,2.2,0.3,4-0.9,5.9c-18.7,29.5-37.4,59.1-56,88.7c-0.7,1.1-1,2.4-1.4,3.6c1.4,0.3,2.9,0.9,4.3,0.8c11.9-0.9,23.8-2,35.7-3
		c1.3-0.1,2.8-0.1,4,0.4c2.9,1.1,3.6,4.2,1.5,6.9c-6.4,8.1-12.8,16.2-19.2,24.3c-34.5,43.5-68.9,87.1-103.4,130.6
		c-0.3,0.4-0.6,1-1,1.2c-0.8,0.3-1.6,0.5-2.4,0.7c-0.1-0.8-0.5-1.8-0.2-2.5c2.1-4.7,4.4-9.2,6.6-13.8
		c18.7-38.9,37.4-77.7,56.1-116.6c0.4-0.8,0.7-1.7,1.3-2.9c-3.4,0.2-6.4,0.4-9.3,0.7c-10.3,0.9-20.6,1.7-30.8,2.7
		c-2.2,0.2-4.1-0.3-5.4-2.1c-1.4-2.1-0.4-3.9,0.7-5.7c17.3-27,34.7-53.9,52-80.9c0.6-0.9,0.8-2.1,1.2-3.2c-1.2-0.3-2.4-0.9-3.5-0.8
		c-10.8,0.9-21.6,1.8-32.4,2.8c-0.7,0.1-1.5,0.3-2,0.1c-1.6-0.8-3.6-1.5-4.4-2.8c-0.6-1.1-0.1-3.4,0.8-4.6c5.5-7.6,11.3-15,17-22.4
		c33.5-43.8,67-87.7,100.5-131.5c0.2-0.2,0.3-0.5,0.5-0.6c0.9-0.5,1.9-1,2.9-1.4c0,1,0.4,2.2,0,3.1c-5.8,13-11.8,25.9-17.7,38.9
		c-12.4,27.2-24.8,54.4-37.2,81.7C276.4,187.8,276.1,188.6,275.4,190.1z"/>
</g>
</svg>
