<?xml version="1.0" standalone="no"?>
<!DOCTYPE svg PUBLIC "-//W3C//DTD SVG 20010904//EN"
 "http://www.w3.org/TR/2001/REC-SVG-20010904/DTD/svg10.dtd">
<svg version="1.0" xmlns="http://www.w3.org/2000/svg"
 width="700.000000pt" height="700.000000pt" viewBox="0 0 700.000000 700.000000"
 preserveAspectRatio="xMidYMid meet">
<metadata>
Created by potrace 1.14, written by Peter Selinger 2001-2017
</metadata>
<g transform="translate(0.000000,700.000000) scale(0.100000,-0.100000)"
fill="#000000" stroke="none">
<path d="M4514 6117 c-18 -10 -206 -250 -438 -557 -22 -30 -43 -57 -47 -60 -3
-3 -18 -23 -35 -45 -16 -22 -117 -155 -224 -295 -107 -140 -208 -273 -224
-295 -17 -22 -32 -42 -36 -45 -3 -3 -25 -32 -50 -65 -24 -33 -50 -66 -57 -75
-20 -24 -213 -277 -380 -497 -99 -131 -153 -211 -153 -227 0 -25 37 -57 68
-58 21 -1 199 12 228 17 61 9 221 20 262 17 41 -3 69 44 -455 -767 -135 -209
-252 -395 -260 -414 -13 -31 -13 -35 9 -58 22 -24 26 -25 118 -18 52 3 113 8
135 10 88 9 154 15 240 21 50 3 93 8 97 10 25 15 8 -34 -58 -173 -42 -87 -98
-203 -124 -258 -55 -116 -149 -310 -263 -545 -43 -91 -96 -201 -117 -245 -21
-44 -75 -156 -120 -250 -182 -377 -186 -385 -155 -385 13 0 160 179 420 511
84 108 506 640 526 664 10 11 175 220 369 465 193 245 360 455 370 467 43 50
51 90 23 119 -15 15 -31 16 -133 9 -149 -9 -183 -12 -250 -19 -218 -21 -243
-18 -222 30 11 23 228 370 675 1076 60 94 111 183 114 198 7 36 -33 69 -79 65
-18 -2 -69 -6 -113 -10 -44 -3 -96 -8 -115 -10 -19 -1 -71 -6 -115 -9 -44 -4
-102 -9 -128 -12 l-48 -6 14 33 c20 46 214 472 266 582 22 49 41 90 41 92 0 2
18 41 39 87 21 45 59 128 84 183 94 209 239 526 293 642 18 39 32 81 31 92 -1
12 -1 21 -2 21 0 -1 -10 -6 -21 -13z"/>
</g>
</svg>
