<?xml version="1.0" encoding="utf-8"?>
<!-- Generator: Adobe Illustrator 23.0.5, SVG Export Plug-In . SVG Version: 6.00 Build 0)  -->
<svg version="1.2" baseProfile="tiny" id="Layer_2" xmlns="http://www.w3.org/2000/svg" xmlns:xlink="http://www.w3.org/1999/xlink"
	 x="0px" y="0px" viewBox="0 0 1366 1366" xml:space="preserve">
<g>
	<rect x="601.65" y="229.75" fill="#449BD8" width="128.06" height="128.06"/>
	<rect x="601.65" y="390.74" fill="#449BD8" width="128.06" height="128.06"/>
	<rect x="601.65" y="551.74" fill="#449BD8" width="128.06" height="128.06"/>
	<rect x="446.15" y="390.74" fill="#449BD8" width="128.06" height="128.06"/>
	<rect x="446.15" y="551.74" fill="#449BD8" width="128.06" height="128.06"/>
	<rect x="290.64" y="390.74" fill="#449BD8" width="128.06" height="128.06"/>
	<rect x="290.64" y="551.74" fill="#449BD8" width="128.06" height="128.06"/>
	<rect x="136.97" y="551.74" fill="#449BD8" width="128.06" height="128.06"/>
	<rect x="757.16" y="551.74" fill="#449BD8" width="128.06" height="128.06"/>
	<path fill="#449BD8" d="M483.3,1136.25c-471.65,0-416.77-415.29-416.77-415.29s654.63,0,787.43,0s176.7-42.08,176.7-42.08
		s-75.01-96.96,12.81-214.05c98.79,56.71,95.13,140.87,95.13,140.87s100.62-32.93,162.82,23.78
		c-34.76,113.43-188.43,106.11-188.43,106.11S970.29,1136.25,483.3,1136.25z"/>
</g>
</svg>
