<svg version="1" xmlns="http://www.w3.org/2000/svg" width="933.333" height="933.333" viewBox="0 0 700.000000 700.000000"><path d="M328 .3c-.3.3-3.9.7-8 1.1-4.1.3-8.5.8-9.8 1.1-1.3.2-5.1.7-8.5 1-3.4.3-6.9.8-7.7 1-.8.2-3.1.7-5 1-12.3 2-29.4 6.1-43 10.2C180.9 35.6 116.7 80 74 134.5c-1.7 2.2-3.6 4.7-4.3 5.5-1.4 1.8-13.7 19.6-15.4 22.5-.7 1.1-3 4.9-5.1 8.5-19 31.3-35.7 75.4-43.1 114-2 10.2-2.3 12-3.7 24.5-.3 3.3-.8 7.3-1.1 9C.4 324.9.2 369.9 1 377c.5 4.1 1.2 10 1.5 13 1.1 9.7 2.2 16.6 5.2 33 1.4 7.7 7 28.3 11 40C40.3 527.2 85 588.7 139.9 630c12.5 9.4 17.8 13 19 13 .6 0 1.1.4 1.1.8 0 .5 1.2 1.5 2.8 2.3 1.5.7 5.2 2.9 8.2 4.8 15.9 9.9 44.9 22.8 68.7 30.7 28.8 9.5 53.1 14.5 83.8 17.3 13.4 1.3 52.1.4 64.5-1.3 18.9-2.7 32.5-5 37.5-6.3 3.3-.8 7.1-1.7 8.5-2 3.3-.6 17.6-4.6 27-7.6 16.6-5.4 44-17.4 58-25.4 12.9-7.5 17.7-10.5 27.5-17.2 30.2-20.7 59.8-48.7 81.7-77.1 25.9-33.7 45.4-72.4 57.3-113.5 2.3-8 6.3-23.6 6.9-27.1.2-1.1.7-3.7 1.1-5.9 1.8-8.8 2.3-12.2 3-18 .4-2.8.8-6.1 1.1-7.5 2.4-15.2 2.4-60.1-.1-80-.9-7.8-1.6-12.4-1.9-12.9-.2-.3-.7-2.6-1-5.1-5-36.6-20.8-81.2-41.2-116.2C643 158 634 145.1 618.6 126c-7.1-8.8-33.3-35.6-41.2-42-3.1-2.5-6.3-5.2-7.3-6.1-2.4-2.2-23.6-17.8-28.6-21-22.9-14.8-46.6-26.6-71.2-35.5-17.3-6.3-43.1-13.3-57.8-15.8-6.6-1.1-25.3-3.7-30.5-4.2-7.1-.7-53.4-1.6-54-1.1zm53.8 45.1c1.3.3 5.1.8 8.5 1.1 3.4.3 6.9.8 7.7 1 .8.2 3.1.7 5 1 1.9.3 4.6.8 6 1 1.4.3 3.5.7 4.7.9 6.6 1.3 30 7.9 37.3 10.6 4.7 1.7 10.9 4 13.8 5.1 3 1.1 10.6 4.5 17 7.6 76.5 37.1 133.1 101.7 159.3 181.6 2.5 7.6 5.4 17.9 6.4 22.7.2.8.9 3.7 1.5 6.5 1.2 5 1.3 5.9 2.5 12.5 3.4 20.3 3.9 27.1 4 52 0 24.7-.6 32.5-3.5 50.6-7.3 45.3-25.7 90-52.4 127.4-5.8 8.1-6.8 9.5-9.1 12.3-.6.7-3 3.7-5.5 6.7-5.4 6.6-4.7 5.9-14.1 15.7-40.4 42.2-90.8 71.4-147.6 85.4-11.5 2.8-16.6 3.8-27.3 5.5-1.9.3-4.6.7-6 1-15.3 2.5-71.3 2.5-79.2 0-.7-.3-3.5-.7-6.3-1-2.7-.3-7.5-1-10.5-1.6-3-.6-6.6-1.3-8-1.6-1.4-.3-3.3-.7-4.2-1-.9-.3-2.5-.6-3.5-.8-11-2.2-32-9.2-47.8-15.9C169 605.6 119.2 561.6 84.8 503c-4.7-8.1-9.5-17.6-16.3-32.5-9.2-20.1-19.6-57.5-21.9-79-.2-2.2-.7-6.3-1-9-3.3-28.7-1.7-63.7 4-91.8.8-4 1.7-8.6 2-10.2 1.3-6.6 7.6-27.1 11.5-37.3 2.3-5.9 4.3-11.7 4.6-13 .3-1.2.9-2.2 1.4-2.2.5 0 .9-.7.9-1.6 0-1.7 11.2-23.7 16.7-32.9 3.5-5.9 10.3-16.6 11.5-18 .4-.5 4-5.3 7.9-10.5 42.4-56.5 108.8-99.2 176.4-113.6 5.7-1.2 18.8-3.6 22-4 2.2-.3 5.1-.8 6.5-1 1.4-.2 6.1-.7 10.5-1.1 4.4-.3 8.2-.7 8.4-.9.6-.5 49.4.4 51.9 1z"/><path d="M451.3 88.3c-1.1.7-7.4 8.2-13.9 16.7s-12.2 15.9-12.6 16.5c-1.6 1.9-10.1 13.1-15.6 20.5-3.1 4.1-5.9 7.7-6.2 8-.3.3-4 5-8.1 10.5-4.2 5.5-14.6 19.2-23.3 30.5-8.6 11.3-16.5 21.6-17.4 22.9-.9 1.3-2.1 2.8-2.7 3.5-.5.6-3 3.8-5.5 7.1-2.4 3.3-5 6.6-5.7 7.5-2 2.4-21.5 27.9-38 49.8-9.7 12.8-15.3 21.1-15.3 22.6 0 2.5 3.8 5.7 6.8 5.8 1.5.1 12.4-.8 22.2-1.7 14.6-1.4 23-1.9 26.8-1.7 3.4.3 2.6 2-10.2 21.9-6.1 9.5-22.1 34.4-35.6 55.4-13.5 20.9-25 39.3-25.7 40.9-1.1 2.5-1 3.2.9 5.5 2.1 2.7 2.2 2.7 11.4 2.1 9.7-.7 16.5-1.3 24.9-2.1 2.8-.3 8.8-.8 13.5-1.1 4.7-.4 8.8-.8 9.2-1 2.5-1.5.8 3.4-5.8 17.3-4.2 8.7-10.1 21-13.1 27.3-3.1 6.3-7.7 16-10.3 21.5-2.6 5.5-8.7 18.1-13.5 28-4.8 9.9-10.9 22.5-13.5 28-2.6 5.5-8 16.7-12 25-18.6 38.5-18.5 38.5-15.5 38.5 1.3 0 8.8-9.1 44.4-54.1 4.1-5.2 32.1-40.5 62.2-78.5 68.1-86 65.9-83.2 65.9-85.8 0-4.4-1.4-5.1-10.2-5.1-7.4 0-20 .8-31.3 2.1-9.9 1-19.2 1.2-20.5.4-2.1-1.3-1-3.2 28-49 44-69.6 50-79.3 50.6-81.7.5-1.8.1-3.1-1.4-4.6-2.6-2.6-4.6-2.6-29.2-.2-1.9.2-7.5.6-12.5 1-4.9.4-10.7.8-12.8 1-2.7.3-3.7 0-3.4-.8.3-.7 8.3-18.1 17.7-38.7 9.4-20.6 18.1-39.5 19.2-42 1.1-2.5 3.4-7.4 5-11 1.7-3.6 5-11 7.5-16.5s5.6-12.5 7-15.5c16.1-35 19.5-42.9 20-45.3.5-3.1.5-3-2.4-1.4z"/></svg>